{"scene":0,"asset":{"generator":"ImageToStl.com","version":"2.0"},"scenes":[{"name":"Scene","nodes":[0]}],"nodes":[{"name":"Node0","children":[1,2]},{"name":"Node1","mesh":0},{"name":"Node2","mesh":1}],"materials":[{"name":"Plastic","pbrMetallicRoughness":{"baseColorFactor":[0.002579,0.002579,0.002579,1.0],"metallicFactor":0.5,"roughnessFactor":0.97665894},"emissiveFactor":[0.0,0.0,0.0],"doubleSided":true},{"name":"Shiny","pbrMetallicRoughness":{"baseColorFactor":[0.010022,0.010022,0.010022,1.0],"metallicFactor":0.5,"roughnessFactor":0.054783918},"emissiveFactor":[0.0,0.0,0.0],"doubleSided":true},{"name":"Screen","pbrMetallicRoughness":{"baseColorFactor":[0.008076,0.008076,0.008076,1.0],"metallicFactor":1.0,"roughnessFactor":0.6265432},"emissiveFactor":[0.0,0.0,0.0],"doubleSided":true},{"name":"Blue","pbrMetallicRoughness":{"baseColorFactor":[0.034824,0.109232,0.8,1.0],"metallicFactor":0.5,"roughnessFactor":0.75},"emissiveFactor":[0.0,0.0,0.0],"doubleSided":true},{"name":"Metal","pbrMetallicRoughness":{"baseColorFactor":[0.496923,0.496923,0.496923,1.0],"metallicFactor":0.5,"roughnessFactor":0.45814043},"emissiveFactor":[0.0,0.0,0.0],"doubleSided":true}],"meshes":[{"name":"Mesh0","primitives":[{"indices":3,"material":0,"attributes":{"POSITION":0,"NORMAL":1,"TEXCOORD_0":2}},{"indices":4,"material":1,"attributes":{"POSITION":0,"NORMAL":1,"TEXCOORD_0":2}},{"indices":5,"material":2,"attributes":{"POSITION":0,"NORMAL":1,"TEXCOORD_0":2}},{"indices":6,"material":3,"attributes":{"POSITION":0,"NORMAL":1,"TEXCOORD_0":2}},{"indices":7,"material":4,"attributes":{"POSITION":0,"NORMAL":1,"TEXCOORD_0":2}}]},{"name":"Mesh0","primitives":[{"indices":11,"material":0,"attributes":{"POSITION":8,"NORMAL":9,"TEXCOORD_0":10}}]}],"accessors":[{"bufferView":0,"componentType":5126,"count":128,"type":"VEC3","min":[-0.45733994,-0.09523005,-0.00021091104],"max":[0.45733994,0.26455018,0.7587327]},{"bufferView":1,"componentType":5126,"count":128,"type":"VEC3"},{"bufferView":2,"componentType":5126,"count":128,"type":"VEC2"},{"bufferView":3,"componentType":5123,"count":1134,"type":"SCALAR"},{"bufferView":4,"componentType":5123,"count":72,"type":"SCALAR"},{"bufferView":5,"componentType":5123,"count":18,"type":"SCALAR"},{"bufferView":6,"componentType":5123,"count":18,"type":"SCALAR"},{"bufferView":7,"componentType":5123,"count":594,"type":"SCALAR"},{"bufferView":8,"componentType":5126,"count":48,"type":"VEC3","min":[0.30205494,0.0039030178,0.16055435],"max":[0.38069034,0.014822516,0.16684487]},{"bufferView":9,"componentType":5126,"count":48,"type":"VEC3"},{"bufferView":10,"componentType":5126,"count":48,"type":"VEC2"},{"bufferView":11,"componentType":5123,"count":756,"type":"SCALAR"}],"bufferViews":[{"target":34962,"buffer":0,"byteLength":1536,"byteOffset":0},{"target":34962,"buffer":0,"byteLength":1536,"byteOffset":1536},{"target":34962,"buffer":0,"byteLength":1024,"byteOffset":3072},{"target":34963,"buffer":0,"byteLength":2268,"byteOffset":4096},{"target":34963,"buffer":0,"byteLength":144,"byteOffset":6364},{"target":34963,"buffer":0,"byteLength":36,"byteOffset":6508},{"target":34963,"buffer":0,"byteLength":36,"byteOffset":6544},{"target":34963,"buffer":0,"byteLength":1188,"byteOffset":6580},{"target":34962,"buffer":0,"byteLength":576,"byteOffset":7768},{"target":34962,"buffer":0,"byteLength":576,"byteOffset":8344},{"target":34962,"buffer":0,"byteLength":384,"byteOffset":8920},{"target":34963,"buffer":0,"byteLength":1512,"byteOffset":9304}],"buffers":[{"byteLength":10816,"uri":"data:application/octet-stream;base64,"}]}